<svg id="visual" viewBox="0 0 900 600" width="900" height="600" xmlns="http://www.w3.org/2000/svg" xmlns:xlink="http://www.w3.org/1999/xlink" version="1.1"><rect x="0" y="0" width="900" height="600" fill="#0f0021"></rect><path d="M0 285L18.8 294.3C37.7 303.7 75.3 322.3 112.8 325.5C150.3 328.7 187.7 316.3 225.2 313.7C262.7 311 300.3 318 337.8 324C375.3 330 412.7 335 450.2 329.8C487.7 324.7 525.3 309.3 562.8 309C600.3 308.7 637.7 323.3 675.2 329.7C712.7 336 750.3 334 787.8 332.7C825.3 331.3 862.7 330.7 881.3 330.3L900 330L900 601L881.3 601C862.7 601 825.3 601 787.8 601C750.3 601 712.7 601 675.2 601C637.7 601 600.3 601 562.8 601C525.3 601 487.7 601 450.2 601C412.7 601 375.3 601 337.8 601C300.3 601 262.7 601 225.2 601C187.7 601 150.3 601 112.8 601C75.3 601 37.7 601 18.8 601L0 601Z" fill="#ab69fa"></path><path d="M0 336L18.8 346.7C37.7 357.3 75.3 378.7 112.8 386.8C150.3 395 187.7 390 225.2 383.8C262.7 377.7 300.3 370.3 337.8 364.8C375.3 359.3 412.7 355.7 450.2 349.2C487.7 342.7 525.3 333.3 562.8 341.8C600.3 350.3 637.7 376.7 675.2 385.5C712.7 394.3 750.3 385.7 787.8 384C825.3 382.3 862.7 387.7 881.3 390.3L900 393L900 601L881.3 601C862.7 601 825.3 601 787.8 601C750.3 601 712.7 601 675.2 601C637.7 601 600.3 601 562.8 601C525.3 601 487.7 601 450.2 601C412.7 601 375.3 601 337.8 601C300.3 601 262.7 601 225.2 601C187.7 601 150.3 601 112.8 601C75.3 601 37.7 601 18.8 601L0 601Z" fill="#9c5bf0"></path><path d="M0 442L18.8 430.7C37.7 419.3 75.3 396.7 112.8 396.8C150.3 397 187.7 420 225.2 422C262.7 424 300.3 405 337.8 399.5C375.3 394 412.7 402 450.2 405.2C487.7 408.3 525.3 406.7 562.8 412.2C600.3 417.7 637.7 430.3 675.2 437.3C712.7 444.3 750.3 445.7 787.8 440.2C825.3 434.7 862.7 422.3 881.3 416.2L900 410L900 601L881.3 601C862.7 601 825.3 601 787.8 601C750.3 601 712.7 601 675.2 601C637.7 601 600.3 601 562.8 601C525.3 601 487.7 601 450.2 601C412.7 601 375.3 601 337.8 601C300.3 601 262.7 601 225.2 601C187.7 601 150.3 601 112.8 601C75.3 601 37.7 601 18.8 601L0 601Z" fill="#8e4ee5"></path><path d="M0 476L18.8 471.2C37.7 466.3 75.3 456.7 112.8 449.8C150.3 443 187.7 439 225.2 443.7C262.7 448.3 300.3 461.7 337.8 466.8C375.3 472 412.7 469 450.2 459.7C487.7 450.3 525.3 434.7 562.8 438C600.3 441.3 637.7 463.7 675.2 474.7C712.7 485.7 750.3 485.3 787.8 480.7C825.3 476 862.7 467 881.3 462.5L900 458L900 601L881.3 601C862.7 601 825.3 601 787.8 601C750.3 601 712.7 601 675.2 601C637.7 601 600.3 601 562.8 601C525.3 601 487.7 601 450.2 601C412.7 601 375.3 601 337.8 601C300.3 601 262.7 601 225.2 601C187.7 601 150.3 601 112.8 601C75.3 601 37.7 601 18.8 601L0 601Z" fill="#7e40db"></path><path d="M0 522L18.8 518C37.7 514 75.3 506 112.8 503.3C150.3 500.7 187.7 503.3 225.2 503C262.7 502.7 300.3 499.3 337.8 500.5C375.3 501.7 412.7 507.3 450.2 512.2C487.7 517 525.3 521 562.8 517C600.3 513 637.7 501 675.2 496.5C712.7 492 750.3 495 787.8 493.3C825.3 491.7 862.7 485.3 881.3 482.2L900 479L900 601L881.3 601C862.7 601 825.3 601 787.8 601C750.3 601 712.7 601 675.2 601C637.7 601 600.3 601 562.8 601C525.3 601 487.7 601 450.2 601C412.7 601 375.3 601 337.8 601C300.3 601 262.7 601 225.2 601C187.7 601 150.3 601 112.8 601C75.3 601 37.7 601 18.8 601L0 601Z" fill="#6f32d1"></path><path d="M0 529L18.8 527.5C37.7 526 75.3 523 112.8 521.8C150.3 520.7 187.7 521.3 225.2 528.2C262.7 535 300.3 548 337.8 554.3C375.3 560.7 412.7 560.3 450.2 555.7C487.7 551 525.3 542 562.8 539C600.3 536 637.7 539 675.2 542.2C712.7 545.3 750.3 548.7 787.8 545.5C825.3 542.3 862.7 532.7 881.3 527.8L900 523L900 601L881.3 601C862.7 601 825.3 601 787.8 601C750.3 601 712.7 601 675.2 601C637.7 601 600.3 601 562.8 601C525.3 601 487.7 601 450.2 601C412.7 601 375.3 601 337.8 601C300.3 601 262.7 601 225.2 601C187.7 601 150.3 601 112.8 601C75.3 601 37.7 601 18.8 601L0 601Z" fill="#5f24c7"></path></svg>