<svg data-v-423bf9ae="" xmlns="http://www.w3.org/2000/svg" viewBox="0 0 335 90" class="iconLeft"><!----><!----><defs data-v-423bf9ae=""><linearGradient data-v-423bf9ae="" gradientTransform="rotate(25)" id="5fe49962-b029-4b16-91ab-c3eb1c8b39a9" x1="0%" y1="0%" x2="100%" y2="0%"><stop data-v-423bf9ae="" offset="0%" style="stop-color: rgb(98, 195, 111); stop-opacity: 1;"></stop><stop data-v-423bf9ae="" offset="100%" style="stop-color: rgb(142, 80, 186); stop-opacity: 1;"></stop></linearGradient></defs><g data-v-423bf9ae="" id="09554a73-b15b-4847-91d4-8ac0b9233cb3" fill="url(#5fe49962-b029-4b16-91ab-c3eb1c8b39a9)" transform="matrix(6.042233215026447,0,0,6.042233215026447,116.79516297770314,-0.2264261561087153)"><path d="M-0.53 12.29L-0.38 11.44L5.92 4.21L1.25 4.21L1.51 2.69L8.97 2.69L8.82 3.56L2.52 10.77L7.69 10.77L7.41 12.29L-0.53 12.29ZM8.86 12.29L9.18 10.51L10.92 10.51L10.60 12.29L8.86 12.29ZM12.61 12.29L14.31 2.69L21.80 2.69L21.53 4.21L15.82 4.21L15.40 6.62L20.50 6.62L20.23 8.15L15.13 8.15L14.67 10.77L20.47 10.77L20.19 12.29L12.61 12.29ZM22.09 12.29L22.41 10.51L24.15 10.51L23.83 12.29L22.09 12.29ZM30.46 12.45L30.46 12.45Q28.41 12.46 27.29 11.50L27.29 11.50L27.29 11.50Q26.17 10.54 26.17 8.69L26.17 8.69L26.17 8.69Q26.17 8.01 26.26 7.42L26.26 7.42L26.26 7.42Q26.63 5.10 28.06 3.81L28.06 3.81L28.06 3.81Q29.50 2.52 31.78 2.52L31.78 2.52L31.78 2.52Q33.84 2.52 34.97 3.48L34.97 3.48L34.97 3.48Q36.11 4.44 36.11 6.26L36.11 6.26L36.11 6.26Q36.11 6.79 36.01 7.50L36.01 7.50L36.01 7.50Q35.66 9.84 34.21 11.15L34.21 11.15L34.21 11.15Q32.76 12.46 30.46 12.45L30.46 12.45ZM30.45 10.93L30.45 10.93Q31.98 10.93 32.91 10.07L32.91 10.07L32.91 10.07Q33.84 9.21 34.12 7.59L34.12 7.59L34.12 7.59Q34.26 6.83 34.26 6.36L34.26 6.36L34.26 6.36Q34.26 5.25 33.62 4.64L33.62 4.64L33.62 4.64Q32.98 4.03 31.79 4.03L31.79 4.03L31.79 4.03Q30.27 4.03 29.34 4.89L29.34 4.89L29.34 4.89Q28.42 5.75 28.14 7.38L28.14 7.38L28.14 7.38Q28 8.23 28 8.60L28 8.60L28 8.60Q28 9.72 28.63 10.32L28.63 10.32L28.63 10.32Q29.26 10.93 30.45 10.93L30.45 10.93Z"></path></g><defs data-v-423bf9ae=""><linearGradient data-v-423bf9ae="" gradientTransform="rotate(25)" id="70a654ad-93e8-4069-9f50-ff054aaac060" x1="0%" y1="0%" x2="100%" y2="0%"><stop data-v-423bf9ae="" offset="0%" style="stop-color: rgb(0, 255, 84); stop-opacity: 1;"></stop><stop data-v-423bf9ae="" offset="100%" style="stop-color: rgb(157, 112, 223); stop-opacity: 1;"></stop></linearGradient></defs><g data-v-423bf9ae="" id="966d5702-1513-403f-bde7-e7b0e85d8da5" transform="matrix(1.4159269941450752,0,0,1.4159269941450752,-25.28307276415731,-24.25268491456221)" stroke="none" fill="url(#70a654ad-93e8-4069-9f50-ff054aaac060)"><path d="M28.7 72.5s-1.5 2.9.5 4.6c2.1 1.8 7 .3 4.6-3.1-2.2-3.4-5.1-1.5-5.1-1.5zM33.5 63.5c.3-1 .2-1.8-1.6-1.1s-1.2 2.2-1.2 2.2c1.3.7 2.5-.1 2.8-1.1zM23.8 61.8c-1.3 3.8 4.7 5.2 5 4.9 1.3-1.4-3.7-8.7-5-4.9zM71.5 69.2c3.2 2.4 6.4-2.8 6.2-3.2-1-1.7-9.5.8-6.2 3.2zM68.9 54.9c-7.1.8-5 11.6-4.2 11.8 3.4 1.1 11.3-12.6 4.2-11.8zM27.9 79.1z"></path><path d="M84.1 81s-3.6-.2-5.1-1.1c0 0-.8 1-2.8.4-1.9-.5-1.5-1.3-2.5-3.5 0 0 0 2.9-2.6 3-2.6.1-9.4-1.4-9.8-4.3-.2-1.4-1-1.8-1.7-1.9l-2.3-14.8c0 1.3-.4 2.4-1 3.3 0-1.5.1-2.7.1-3.9-.1-3.4 2-4.9 3.5-6 1.5-1.1.1-2.4 1.4-3.7s.8-3.6 1.4-4.1c.7-.5 1.6-1.9 2.1-3.8s.5-3.3 1.4-4.5c.9-1.1-.2-7.1-1.9-5.1-1.5 1.8-3.5 3.2-3.5 5.7-.1 2-1.6 4.4-3.7 5.7-2.1 1.3-.2-6.2 0-7.7.2-1.4.6-5.5.8-7.1.2-1.7-.2-2.7-.4-4.4-.2-1.7.4-4.3-1.4-5.5s-3.5 2-3.3 3.8c.2 1.8 1 5.3.4 8.5s-.2 5.1-1.6 6.1-1.2-2.4-1.7-4.9c-.5-2.5-.8-3.3-.5-4.4.3-1.1 0-2.7.5-4 .5-1.4-.8-4.3-2.6-4.3s-1.8 3.9-2.4 5c-.6 1.1-.8 3.4 0 4.6.8 1.2.4 3.7.8 5.8.4 2.1.9 3.7.2 3.4-.7-.3-.8-3.6-1.4-4.8-.6-1.2-.2-2.4-.5-3.8-.2-1.4-1.1-3.8-.9-5.3.2-1.5.2-2.9-1.1-3.7-1.3-.8-2.6.8-2.8 2.4-.2 1.6 0 2.1.2 4.3s-.6 3.1 0 5.5 2.7 6.5 2.7 6.5-2.1-.5-2.8-2.4c-.7-1.9-.9-4.2-1.9-5.3-1-1.1-.5-3.3-1.1-5.4-.6-2.1-3.2-.6-3.4 1.7-.2 2.4.8 3.2.9 5 .1 1.8 1.3 2.4 2.5 4s.3 1.1 1.3 3.2 1.4 3 1.9 6.8.9 5.3 2.1 6.3c1.1 1 1.6 2.6 1.2 3.8-.4 1.2-2.5 1.5-1.9 3.3.6 1.7 1.7 3.5 1.9 6.8.1 1.5-.3 4-.7 6.1-.8-1.6-1.1-3.7-1.1-3.7l-1.9 10c-.1.1-3.4 1.7-7 1.3-3.5-.4-3.7-.8-3.7-.8 0 .1.1 1.4-10.4 1.9h66.1zM52.5 47.9s1.7-1.1 3 .9c1.4 2-1.5 2.9-2.7 1.8-1.2-1-.3-2.7-.3-2.7zm-3.9-6.3c2-1.4 1.9 4 .7 4.3-.2 0-2.7-2.9-.7-4.3z"></path></g><!----></svg>